<?xml version="1.0" encoding="UTF-8" standalone="no"?><svg xmlns="http://www.w3.org/2000/svg" xmlns:xlink="http://www.w3.org/1999/xlink" contentScriptType="application/ecmascript" contentStyleType="text/css" height="262px" preserveAspectRatio="none" style="width:404px;height:262px;" version="1.1" viewBox="0 0 404 262" width="404px" zoomAndPan="magnify"><defs><filter height="300%" id="fb01hikivedq" width="300%" x="-1" y="-1"><feGaussianBlur result="blurOut" stdDeviation="2.0"/><feColorMatrix in="blurOut" result="blurOut2" type="matrix" values="0 0 0 0 0 0 0 0 0 0 0 0 0 0 0 0 0 0 .4 0"/><feOffset dx="4.0" dy="4.0" in="blurOut2" result="blurOut3"/><feBlend in="SourceGraphic" in2="blurOut3" mode="normal"/></filter></defs><g><text fill="#000000" font-family="sans-serif" font-size="18" lengthAdjust="spacingAndGlyphs" textLength="326" x="30.25" y="16.708">Common Social Media Post Schema</text><!--MD5=[f5176843a2b7443840f73d755ed30161]
class schema:Place--><a href="http://schema.org/Place" target="_top" title="http://schema.org/Place" xlink:actuate="onRequest" xlink:href="http://schema.org/Place" xlink:show="new" xlink:title="http://schema.org/Place" xlink:type="simple"><rect codeLine="2" fill="#FEFECE" filter="url(#fb01hikivedq)" height="48" id="schema:Place" style="stroke: #A80036; stroke-width: 1.5;" width="114" x="7" y="40.9531"/><ellipse cx="22" cy="56.9531" fill="#ADD1B2" rx="11" ry="11" style="stroke: #A80036; stroke-width: 1.0;"/><path d="M24.3438,52.625 C23.4063,52.1875 22.8125,52.0469 21.9375,52.0469 C19.3125,52.0469 17.3125,54.125 17.3125,56.8438 L17.3125,57.9688 C17.3125,60.5469 19.4219,62.4375 22.3125,62.4375 C23.5313,62.4375 24.6875,62.1406 25.4375,61.5938 C26.0156,61.1875 26.3438,60.7344 26.3438,60.3438 C26.3438,59.8906 25.9531,59.5 25.4844,59.5 C25.2656,59.5 25.0625,59.5781 24.875,59.7656 C24.4219,60.25 24.4219,60.25 24.2344,60.3438 C23.8125,60.6094 23.125,60.7344 22.3594,60.7344 C20.3125,60.7344 19.0156,59.6406 19.0156,57.9375 L19.0156,56.8438 C19.0156,55.0625 20.2656,53.75 22,53.75 C22.5781,53.75 23.1875,53.9063 23.6563,54.1563 C24.1406,54.4375 24.3125,54.6563 24.4063,55.0625 C24.4688,55.4688 24.5,55.5938 24.6406,55.7188 C24.7813,55.8594 25.0156,55.9688 25.2344,55.9688 C25.5,55.9688 25.7656,55.8281 25.9375,55.6094 C26.0469,55.4531 26.0781,55.2656 26.0781,54.8438 L26.0781,53.4219 C26.0781,52.9844 26.0625,52.8594 25.9688,52.7031 C25.8125,52.4375 25.5313,52.2969 25.2344,52.2969 C24.9375,52.2969 24.7344,52.3906 24.5156,52.7031 L24.3438,52.625 Z "/><text fill="#000000" font-family="sans-serif" font-size="12" lengthAdjust="spacingAndGlyphs" textLength="82" x="36" y="61.1074">schema:Place</text><line style="stroke: #A80036; stroke-width: 1.5;" x1="8" x2="120" y1="72.9531" y2="72.9531"/><line style="stroke: #A80036; stroke-width: 1.5;" x1="8" x2="120" y1="80.9531" y2="80.9531"/></a><!--MD5=[9bb605c19e18386e032ddc7bcbe77a0b]
class schema:Person--><a href="http://schema.org/Person" target="_top" title="http://schema.org/Person" xlink:actuate="onRequest" xlink:href="http://schema.org/Person" xlink:show="new" xlink:title="http://schema.org/Person" xlink:type="simple"><rect codeLine="4" fill="#FEFECE" filter="url(#fb01hikivedq)" height="48" id="schema:Person" style="stroke: #A80036; stroke-width: 1.5;" width="124" x="209" y="178.9531"/><ellipse cx="224" cy="194.9531" fill="#ADD1B2" rx="11" ry="11" style="stroke: #A80036; stroke-width: 1.0;"/><path d="M226.3438,190.625 C225.4063,190.1875 224.8125,190.0469 223.9375,190.0469 C221.3125,190.0469 219.3125,192.125 219.3125,194.8438 L219.3125,195.9688 C219.3125,198.5469 221.4219,200.4375 224.3125,200.4375 C225.5313,200.4375 226.6875,200.1406 227.4375,199.5938 C228.0156,199.1875 228.3438,198.7344 228.3438,198.3438 C228.3438,197.8906 227.9531,197.5 227.4844,197.5 C227.2656,197.5 227.0625,197.5781 226.875,197.7656 C226.4219,198.25 226.4219,198.25 226.2344,198.3438 C225.8125,198.6094 225.125,198.7344 224.3594,198.7344 C222.3125,198.7344 221.0156,197.6406 221.0156,195.9375 L221.0156,194.8438 C221.0156,193.0625 222.2656,191.75 224,191.75 C224.5781,191.75 225.1875,191.9063 225.6563,192.1563 C226.1406,192.4375 226.3125,192.6563 226.4063,193.0625 C226.4688,193.4688 226.5,193.5938 226.6406,193.7188 C226.7813,193.8594 227.0156,193.9688 227.2344,193.9688 C227.5,193.9688 227.7656,193.8281 227.9375,193.6094 C228.0469,193.4531 228.0781,193.2656 228.0781,192.8438 L228.0781,191.4219 C228.0781,190.9844 228.0625,190.8594 227.9688,190.7031 C227.8125,190.4375 227.5313,190.2969 227.2344,190.2969 C226.9375,190.2969 226.7344,190.3906 226.5156,190.7031 L226.3438,190.625 Z "/><text fill="#000000" font-family="sans-serif" font-size="12" lengthAdjust="spacingAndGlyphs" textLength="92" x="238" y="199.1074">schema:Person</text><line style="stroke: #A80036; stroke-width: 1.5;" x1="210" x2="332" y1="210.9531" y2="210.9531"/><line style="stroke: #A80036; stroke-width: 1.5;" x1="210" x2="332" y1="218.9531" y2="218.9531"/></a><!--MD5=[00a64583a07f757fd7b856836c751844]
class schema:SocialMediaPosting--><a href="http://schema.org/SocialMediaPosting" target="_top" title="http://schema.org/SocialMediaPosting" xlink:actuate="onRequest" xlink:href="http://schema.org/SocialMediaPosting" xlink:show="new" xlink:title="http://schema.org/SocialMediaPosting" xlink:type="simple"><rect codeLine="6" fill="#FEFECE" filter="url(#fb01hikivedq)" height="73.6094" id="schema:SocialMediaPosting" style="stroke: #A80036; stroke-width: 1.5;" width="229" x="156.5" y="27.9531"/><ellipse cx="185.45" cy="43.9531" fill="#ADD1B2" rx="11" ry="11" style="stroke: #A80036; stroke-width: 1.0;"/><path d="M187.7938,39.625 C186.8563,39.1875 186.2625,39.0469 185.3875,39.0469 C182.7625,39.0469 180.7625,41.125 180.7625,43.8438 L180.7625,44.9688 C180.7625,47.5469 182.8719,49.4375 185.7625,49.4375 C186.9813,49.4375 188.1375,49.1406 188.8875,48.5938 C189.4656,48.1875 189.7938,47.7344 189.7938,47.3438 C189.7938,46.8906 189.4031,46.5 188.9344,46.5 C188.7156,46.5 188.5125,46.5781 188.325,46.7656 C187.8719,47.25 187.8719,47.25 187.6844,47.3438 C187.2625,47.6094 186.575,47.7344 185.8094,47.7344 C183.7625,47.7344 182.4656,46.6406 182.4656,44.9375 L182.4656,43.8438 C182.4656,42.0625 183.7156,40.75 185.45,40.75 C186.0281,40.75 186.6375,40.9063 187.1063,41.1563 C187.5906,41.4375 187.7625,41.6563 187.8563,42.0625 C187.9188,42.4688 187.95,42.5938 188.0906,42.7188 C188.2313,42.8594 188.4656,42.9688 188.6844,42.9688 C188.95,42.9688 189.2156,42.8281 189.3875,42.6094 C189.4969,42.4531 189.5281,42.2656 189.5281,41.8438 L189.5281,40.4219 C189.5281,39.9844 189.5125,39.8594 189.4188,39.7031 C189.2625,39.4375 188.9813,39.2969 188.6844,39.2969 C188.3875,39.2969 188.1844,39.3906 187.9656,39.7031 L187.7938,39.625 Z "/><text fill="#000000" font-family="sans-serif" font-size="12" lengthAdjust="spacingAndGlyphs" textLength="166" x="202.55" y="48.1074">schema:SocialMediaPosting</text><line style="stroke: #A80036; stroke-width: 1.5;" x1="157.5" x2="384.5" y1="59.9531" y2="59.9531"/></a><a href="http://schema.org/headline" target="_top" title="http://schema.org/headline" xlink:actuate="onRequest" xlink:href="http://schema.org/headline" xlink:show="new" xlink:title="http://schema.org/headline" xlink:type="simple"><text fill="#0000FF" font-family="sans-serif" font-size="11" lengthAdjust="spacingAndGlyphs" text-decoration="underline" textLength="98" x="162.5" y="74.1636">schema:headline</text></a><text fill="#000000" font-family="sans-serif" font-size="11" lengthAdjust="spacingAndGlyphs" textLength="3" x="264.5" y="74.1636">:</text><a href="http://www.w3.org/2001/XMLSchema#string" target="_top" title="http://www.w3.org/2001/XMLSchema#string" xlink:actuate="onRequest" xlink:href="http://www.w3.org/2001/XMLSchema#string" xlink:show="new" xlink:title="http://www.w3.org/2001/XMLSchema#string" xlink:type="simple"><text fill="#0000FF" font-family="sans-serif" font-size="11" lengthAdjust="spacingAndGlyphs" text-decoration="underline" textLength="54" x="271.5" y="74.1636">xsd:string</text></a><a href="http://schema.org/datePublished" target="_top" title="http://schema.org/datePublished" xlink:actuate="onRequest" xlink:href="http://schema.org/datePublished" xlink:show="new" xlink:title="http://schema.org/datePublished" xlink:type="simple"><text fill="#0000FF" font-family="sans-serif" font-size="11" lengthAdjust="spacingAndGlyphs" text-decoration="underline" textLength="128" x="162.5" y="86.9683">schema:datePublished</text></a><text fill="#000000" font-family="sans-serif" font-size="11" lengthAdjust="spacingAndGlyphs" textLength="3" x="294.5" y="86.9683">:</text><a href="http://www.w3.org/2001/XMLSchema#dateTime" target="_top" title="http://www.w3.org/2001/XMLSchema#dateTime" xlink:actuate="onRequest" xlink:href="http://www.w3.org/2001/XMLSchema#dateTime" xlink:show="new" xlink:title="http://www.w3.org/2001/XMLSchema#dateTime" xlink:type="simple"><text fill="#0000FF" font-family="sans-serif" font-size="11" lengthAdjust="spacingAndGlyphs" text-decoration="underline" textLength="78" x="301.5" y="86.9683">xsd:dateTime</text></a><line style="stroke: #A80036; stroke-width: 1.5;" x1="157.5" x2="384.5" y1="93.5625" y2="93.5625"/><!--MD5=[c89992574e79ab136d623836c5baeaf6]
link schema:SocialMediaPosting to schema:Person--><path codeLine="10" d="M271,102.0411 C271,124.3851 271,152.674 271,173.4423 " fill="none" id="schema:SocialMediaPosting-&gt;schema:Person" style="stroke: #A80036; stroke-width: 1.0;"/><polygon fill="#A80036" points="271,178.5521,275,169.5521,271,173.5521,267,169.5521,271,178.5521" style="stroke: #A80036; stroke-width: 1.0;"/><a href="http://schema.org/author" target="_top" title="http://schema.org/author" xlink:actuate="onRequest" xlink:href="http://schema.org/author" xlink:show="new" xlink:title="http://schema.org/author" xlink:type="simple"><text fill="#0000FF" font-family="sans-serif" font-size="13" lengthAdjust="spacingAndGlyphs" text-decoration="underline" textLength="98" x="272" y="145.02">schema:author</text></a><text fill="#888888" font-family="sans-serif" font-size="10" lengthAdjust="spacingAndGlyphs" textLength="74" x="39.75" y="249.2354">Generated by</text><a href="https://github.com/edmondchuc/ontogram" target="_top" title="https://github.com/edmondchuc/ontogram" xlink:actuate="onRequest" xlink:href="https://github.com/edmondchuc/ontogram" xlink:show="new" xlink:title="https://github.com/edmondchuc/ontogram" xlink:type="simple"><text fill="#0000FF" font-family="sans-serif" font-size="10" lengthAdjust="spacingAndGlyphs" text-decoration="underline" textLength="230" x="116.75" y="249.2354">https://github.com/edmondchuc/ontogram</text></a><!--MD5=[605b6424919222f568e0ee7cc956f56a]
@startuml
title Common Social Media Post Schema
Class "schema:Place" [[http://schema.org/Place]] {
}
Class "schema:Person" [[http://schema.org/Person]] {
}
Class "schema:SocialMediaPosting" [[http://schema.org/SocialMediaPosting]] {
[[http://schema.org/headline schema:headline]] : [[http://www.w3.org/2001/XMLSchema#string xsd:string]]
[[http://schema.org/datePublished schema:datePublished]] : [[http://www.w3.org/2001/XMLSchema#dateTime xsd:dateTime]]
}
"schema:SocialMediaPosting" - -> "schema:Person" : "[[http://schema.org/author schema:author]]"
center footer Generated by [[https://github.com/edmondchuc/ontogram https://github.com/edmondchuc/ontogram]]
@enduml

PlantUML version 1.2020.16beta7(Unknown compile time)
(GPL source distribution)
Java Runtime: Java(TM) SE Runtime Environment
JVM: Java HotSpot(TM) 64-Bit Server VM
Default Encoding: UTF-8
Language: en
Country: US
--></g></svg>