<?xml version="1.0" encoding="UTF-8" standalone="no"?><svg xmlns="http://www.w3.org/2000/svg" xmlns:xlink="http://www.w3.org/1999/xlink" contentScriptType="application/ecmascript" contentStyleType="text/css" height="694px" preserveAspectRatio="none" style="width:684px;height:694px;" version="1.1" viewBox="0 0 684 694" width="684px" zoomAndPan="magnify"><defs><filter height="300%" id="f11a7c4aovb2nk" width="300%" x="-1" y="-1"><feGaussianBlur result="blurOut" stdDeviation="2.0"/><feColorMatrix in="blurOut" result="blurOut2" type="matrix" values="0 0 0 0 0 0 0 0 0 0 0 0 0 0 0 0 0 0 .4 0"/><feOffset dx="4.0" dy="4.0" in="blurOut2" result="blurOut3"/><feBlend in="SourceGraphic" in2="blurOut3" mode="normal"/></filter></defs><g><text fill="#000000" font-family="sans-serif" font-size="18" lengthAdjust="spacingAndGlyphs" textLength="167" x="249.75" y="16.708">Facebook Schema</text><!--MD5=[c88a4f8fa365328eeba6e95f9c46aaa1]
class :MediaMetadata--><a href="http://example.com/facebook#MediaMetadata" target="_top" title="http://example.com/facebook#MediaMetadata" xlink:actuate="onRequest" xlink:href="http://example.com/facebook#MediaMetadata" xlink:show="new" xlink:title="http://example.com/facebook#MediaMetadata" xlink:type="simple"><rect codeLine="14" fill="#FEFECE" filter="url(#f11a7c4aovb2nk)" height="48" id=":MediaMetadata" style="stroke: #A80036; stroke-width: 1.5;" width="127" x="270.5" y="475.9531"/><ellipse cx="285.5" cy="491.9531" fill="#ADD1B2" rx="11" ry="11" style="stroke: #A80036; stroke-width: 1.0;"/><path d="M287.8438,487.625 C286.9063,487.1875 286.3125,487.0469 285.4375,487.0469 C282.8125,487.0469 280.8125,489.125 280.8125,491.8438 L280.8125,492.9688 C280.8125,495.5469 282.9219,497.4375 285.8125,497.4375 C287.0313,497.4375 288.1875,497.1406 288.9375,496.5938 C289.5156,496.1875 289.8438,495.7344 289.8438,495.3438 C289.8438,494.8906 289.4531,494.5 288.9844,494.5 C288.7656,494.5 288.5625,494.5781 288.375,494.7656 C287.9219,495.25 287.9219,495.25 287.7344,495.3438 C287.3125,495.6094 286.625,495.7344 285.8594,495.7344 C283.8125,495.7344 282.5156,494.6406 282.5156,492.9375 L282.5156,491.8438 C282.5156,490.0625 283.7656,488.75 285.5,488.75 C286.0781,488.75 286.6875,488.9063 287.1563,489.1563 C287.6406,489.4375 287.8125,489.6563 287.9063,490.0625 C287.9688,490.4688 288,490.5938 288.1406,490.7188 C288.2813,490.8594 288.5156,490.9688 288.7344,490.9688 C289,490.9688 289.2656,490.8281 289.4375,490.6094 C289.5469,490.4531 289.5781,490.2656 289.5781,489.8438 L289.5781,488.4219 C289.5781,487.9844 289.5625,487.8594 289.4688,487.7031 C289.3125,487.4375 289.0313,487.2969 288.7344,487.2969 C288.4375,487.2969 288.2344,487.3906 288.0156,487.7031 L287.8438,487.625 Z "/><text fill="#000000" font-family="sans-serif" font-size="12" lengthAdjust="spacingAndGlyphs" textLength="95" x="299.5" y="496.1074">:MediaMetadata</text><line style="stroke: #A80036; stroke-width: 1.5;" x1="271.5" x2="396.5" y1="507.9531" y2="507.9531"/><line style="stroke: #A80036; stroke-width: 1.5;" x1="271.5" x2="396.5" y1="515.9531" y2="515.9531"/></a><!--MD5=[715560af1dbcf9e860a25e8966a58718]
class :PhotoMetadata--><a href="http://example.com/facebook#PhotoMetadata" target="_top" title="http://example.com/facebook#PhotoMetadata" xlink:actuate="onRequest" xlink:href="http://example.com/facebook#PhotoMetadata" xlink:show="new" xlink:title="http://example.com/facebook#PhotoMetadata" xlink:type="simple"><rect codeLine="6" fill="#FEFECE" filter="url(#f11a7c4aovb2nk)" height="60.8047" id=":PhotoMetadata" style="stroke: #A80036; stroke-width: 1.5;" width="172" x="248" y="597.9531"/><ellipse cx="284.6" cy="613.9531" fill="#ADD1B2" rx="11" ry="11" style="stroke: #A80036; stroke-width: 1.0;"/><path d="M286.9438,609.625 C286.0063,609.1875 285.4125,609.0469 284.5375,609.0469 C281.9125,609.0469 279.9125,611.125 279.9125,613.8438 L279.9125,614.9688 C279.9125,617.5469 282.0219,619.4375 284.9125,619.4375 C286.1313,619.4375 287.2875,619.1406 288.0375,618.5938 C288.6156,618.1875 288.9438,617.7344 288.9438,617.3438 C288.9438,616.8906 288.5531,616.5 288.0844,616.5 C287.8656,616.5 287.6625,616.5781 287.475,616.7656 C287.0219,617.25 287.0219,617.25 286.8344,617.3438 C286.4125,617.6094 285.725,617.7344 284.9594,617.7344 C282.9125,617.7344 281.6156,616.6406 281.6156,614.9375 L281.6156,613.8438 C281.6156,612.0625 282.8656,610.75 284.6,610.75 C285.1781,610.75 285.7875,610.9063 286.2563,611.1563 C286.7406,611.4375 286.9125,611.6563 287.0063,612.0625 C287.0688,612.4688 287.1,612.5938 287.2406,612.7188 C287.3813,612.8594 287.6156,612.9688 287.8344,612.9688 C288.1,612.9688 288.3656,612.8281 288.5375,612.6094 C288.6469,612.4531 288.6781,612.2656 288.6781,611.8438 L288.6781,610.4219 C288.6781,609.9844 288.6625,609.8594 288.5688,609.7031 C288.4125,609.4375 288.1313,609.2969 287.8344,609.2969 C287.5375,609.2969 287.3344,609.3906 287.1156,609.7031 L286.9438,609.625 Z "/><text fill="#000000" font-family="sans-serif" font-size="12" lengthAdjust="spacingAndGlyphs" textLength="92" x="303.4" y="618.1074">:PhotoMetadata</text><line style="stroke: #A80036; stroke-width: 1.5;" x1="249" x2="419" y1="629.9531" y2="629.9531"/></a><a href="http://example.com/facebook#photo_upload_ip" target="_top" title="http://example.com/facebook#photo_upload_ip" xlink:actuate="onRequest" xlink:href="http://example.com/facebook#photo_upload_ip" xlink:show="new" xlink:title="http://example.com/facebook#photo_upload_ip" xlink:type="simple"><text fill="#0000FF" font-family="sans-serif" font-size="11" lengthAdjust="spacingAndGlyphs" text-decoration="underline" textLength="95" x="254" y="644.1636">:photo_upload_ip</text></a><text fill="#000000" font-family="sans-serif" font-size="11" lengthAdjust="spacingAndGlyphs" textLength="3" x="353" y="644.1636">:</text><a href="http://www.w3.org/2001/XMLSchema#string" target="_top" title="http://www.w3.org/2001/XMLSchema#string" xlink:actuate="onRequest" xlink:href="http://www.w3.org/2001/XMLSchema#string" xlink:show="new" xlink:title="http://www.w3.org/2001/XMLSchema#string" xlink:type="simple"><text fill="#0000FF" font-family="sans-serif" font-size="11" lengthAdjust="spacingAndGlyphs" text-decoration="underline" textLength="54" x="360" y="644.1636">xsd:string</text></a><line style="stroke: #A80036; stroke-width: 1.5;" x1="249" x2="419" y1="650.7578" y2="650.7578"/><!--MD5=[14f237c09bbfff998a7b1b8fee00608e]
class :Attachment--><a href="http://example.com/facebook#Attachment" target="_top" title="http://example.com/facebook#Attachment" xlink:actuate="onRequest" xlink:href="http://example.com/facebook#Attachment" xlink:show="new" xlink:title="http://example.com/facebook#Attachment" xlink:type="simple"><rect codeLine="16" fill="#FEFECE" filter="url(#f11a7c4aovb2nk)" height="48" id=":Attachment" style="stroke: #A80036; stroke-width: 1.5;" width="103" x="282.5" y="190.9531"/><ellipse cx="297.5" cy="206.9531" fill="#ADD1B2" rx="11" ry="11" style="stroke: #A80036; stroke-width: 1.0;"/><path d="M299.8438,202.625 C298.9063,202.1875 298.3125,202.0469 297.4375,202.0469 C294.8125,202.0469 292.8125,204.125 292.8125,206.8438 L292.8125,207.9688 C292.8125,210.5469 294.9219,212.4375 297.8125,212.4375 C299.0313,212.4375 300.1875,212.1406 300.9375,211.5938 C301.5156,211.1875 301.8438,210.7344 301.8438,210.3438 C301.8438,209.8906 301.4531,209.5 300.9844,209.5 C300.7656,209.5 300.5625,209.5781 300.375,209.7656 C299.9219,210.25 299.9219,210.25 299.7344,210.3438 C299.3125,210.6094 298.625,210.7344 297.8594,210.7344 C295.8125,210.7344 294.5156,209.6406 294.5156,207.9375 L294.5156,206.8438 C294.5156,205.0625 295.7656,203.75 297.5,203.75 C298.0781,203.75 298.6875,203.9063 299.1563,204.1563 C299.6406,204.4375 299.8125,204.6563 299.9063,205.0625 C299.9688,205.4688 300,205.5938 300.1406,205.7188 C300.2813,205.8594 300.5156,205.9688 300.7344,205.9688 C301,205.9688 301.2656,205.8281 301.4375,205.6094 C301.5469,205.4531 301.5781,205.2656 301.5781,204.8438 L301.5781,203.4219 C301.5781,202.9844 301.5625,202.8594 301.4688,202.7031 C301.3125,202.4375 301.0313,202.2969 300.7344,202.2969 C300.4375,202.2969 300.2344,202.3906 300.0156,202.7031 L299.8438,202.625 Z "/><text fill="#000000" font-family="sans-serif" font-size="12" lengthAdjust="spacingAndGlyphs" textLength="71" x="311.5" y="211.1074">:Attachment</text><line style="stroke: #A80036; stroke-width: 1.5;" x1="283.5" x2="384.5" y1="222.9531" y2="222.9531"/><line style="stroke: #A80036; stroke-width: 1.5;" x1="283.5" x2="384.5" y1="230.9531" y2="230.9531"/></a><!--MD5=[4d6acee6e23295b4429af774960f8250]
class :Place--><a href="http://example.com/facebook#Place" target="_top" title="http://example.com/facebook#Place" xlink:actuate="onRequest" xlink:href="http://example.com/facebook#Place" xlink:show="new" xlink:title="http://example.com/facebook#Place" xlink:type="simple"><rect codeLine="9" fill="#FEFECE" filter="url(#f11a7c4aovb2nk)" height="86.4141" id=":Place" style="stroke: #A80036; stroke-width: 1.5;" width="162" x="7" y="299.9531"/><ellipse cx="66.25" cy="315.9531" fill="#ADD1B2" rx="11" ry="11" style="stroke: #A80036; stroke-width: 1.0;"/><path d="M68.5938,311.625 C67.6563,311.1875 67.0625,311.0469 66.1875,311.0469 C63.5625,311.0469 61.5625,313.125 61.5625,315.8438 L61.5625,316.9688 C61.5625,319.5469 63.6719,321.4375 66.5625,321.4375 C67.7813,321.4375 68.9375,321.1406 69.6875,320.5938 C70.2656,320.1875 70.5938,319.7344 70.5938,319.3438 C70.5938,318.8906 70.2031,318.5 69.7344,318.5 C69.5156,318.5 69.3125,318.5781 69.125,318.7656 C68.6719,319.25 68.6719,319.25 68.4844,319.3438 C68.0625,319.6094 67.375,319.7344 66.6094,319.7344 C64.5625,319.7344 63.2656,318.6406 63.2656,316.9375 L63.2656,315.8438 C63.2656,314.0625 64.5156,312.75 66.25,312.75 C66.8281,312.75 67.4375,312.9063 67.9063,313.1563 C68.3906,313.4375 68.5625,313.6563 68.6563,314.0625 C68.7188,314.4688 68.75,314.5938 68.8906,314.7188 C69.0313,314.8594 69.2656,314.9688 69.4844,314.9688 C69.75,314.9688 70.0156,314.8281 70.1875,314.6094 C70.2969,314.4531 70.3281,314.2656 70.3281,313.8438 L70.3281,312.4219 C70.3281,311.9844 70.3125,311.8594 70.2188,311.7031 C70.0625,311.4375 69.7813,311.2969 69.4844,311.2969 C69.1875,311.2969 68.9844,311.3906 68.7656,311.7031 L68.5938,311.625 Z "/><text fill="#000000" font-family="sans-serif" font-size="12" lengthAdjust="spacingAndGlyphs" textLength="35" x="86.75" y="320.1074">:Place</text><line style="stroke: #A80036; stroke-width: 1.5;" x1="8" x2="168" y1="331.9531" y2="331.9531"/></a><a href="http://example.com/facebook#place_url" target="_top" title="http://example.com/facebook#place_url" xlink:actuate="onRequest" xlink:href="http://example.com/facebook#place_url" xlink:show="new" xlink:title="http://example.com/facebook#place_url" xlink:type="simple"><text fill="#0000FF" font-family="sans-serif" font-size="11" lengthAdjust="spacingAndGlyphs" text-decoration="underline" textLength="54" x="13" y="346.1636">:place_url</text></a><text fill="#000000" font-family="sans-serif" font-size="11" lengthAdjust="spacingAndGlyphs" textLength="3" x="71" y="346.1636">:</text><a href="http://www.w3.org/2001/XMLSchema#anyURI" target="_top" title="http://www.w3.org/2001/XMLSchema#anyURI" xlink:actuate="onRequest" xlink:href="http://www.w3.org/2001/XMLSchema#anyURI" xlink:show="new" xlink:title="http://www.w3.org/2001/XMLSchema#anyURI" xlink:type="simple"><text fill="#0000FF" font-family="sans-serif" font-size="11" lengthAdjust="spacingAndGlyphs" text-decoration="underline" textLength="62" x="78" y="346.1636">xsd:anyURI</text></a><a href="http://example.com/facebook#place_name" target="_top" title="http://example.com/facebook#place_name" xlink:actuate="onRequest" xlink:href="http://example.com/facebook#place_name" xlink:show="new" xlink:title="http://example.com/facebook#place_name" xlink:type="simple"><text fill="#0000FF" font-family="sans-serif" font-size="11" lengthAdjust="spacingAndGlyphs" text-decoration="underline" textLength="73" x="13" y="358.9683">:place_name</text></a><text fill="#000000" font-family="sans-serif" font-size="11" lengthAdjust="spacingAndGlyphs" textLength="3" x="90" y="358.9683">:</text><a href="http://www.w3.org/2001/XMLSchema#string" target="_top" title="http://www.w3.org/2001/XMLSchema#string" xlink:actuate="onRequest" xlink:href="http://www.w3.org/2001/XMLSchema#string" xlink:show="new" xlink:title="http://www.w3.org/2001/XMLSchema#string" xlink:type="simple"><text fill="#0000FF" font-family="sans-serif" font-size="11" lengthAdjust="spacingAndGlyphs" text-decoration="underline" textLength="54" x="97" y="358.9683">xsd:string</text></a><a href="http://example.com/facebook#place_address" target="_top" title="http://example.com/facebook#place_address" xlink:actuate="onRequest" xlink:href="http://example.com/facebook#place_address" xlink:show="new" xlink:title="http://example.com/facebook#place_address" xlink:type="simple"><text fill="#0000FF" font-family="sans-serif" font-size="11" lengthAdjust="spacingAndGlyphs" text-decoration="underline" textLength="85" x="13" y="371.7729">:place_address</text></a><text fill="#000000" font-family="sans-serif" font-size="11" lengthAdjust="spacingAndGlyphs" textLength="3" x="102" y="371.7729">:</text><a href="http://www.w3.org/2001/XMLSchema#string" target="_top" title="http://www.w3.org/2001/XMLSchema#string" xlink:actuate="onRequest" xlink:href="http://www.w3.org/2001/XMLSchema#string" xlink:show="new" xlink:title="http://www.w3.org/2001/XMLSchema#string" xlink:type="simple"><text fill="#0000FF" font-family="sans-serif" font-size="11" lengthAdjust="spacingAndGlyphs" text-decoration="underline" textLength="54" x="109" y="371.7729">xsd:string</text></a><line style="stroke: #A80036; stroke-width: 1.5;" x1="8" x2="168" y1="378.3672" y2="378.3672"/><!--MD5=[5356a3dccae03660a38a3542baee57ca]
class :Media--><a href="http://example.com/facebook#Media" target="_top" title="http://example.com/facebook#Media" xlink:actuate="onRequest" xlink:href="http://example.com/facebook#Media" xlink:show="new" xlink:title="http://example.com/facebook#Media" xlink:type="simple"><rect codeLine="18" fill="#FEFECE" filter="url(#f11a7c4aovb2nk)" height="86.4141" id=":Media" style="stroke: #A80036; stroke-width: 1.5;" width="259" x="204.5" y="299.9531"/><ellipse cx="309.75" cy="315.9531" fill="#ADD1B2" rx="11" ry="11" style="stroke: #A80036; stroke-width: 1.0;"/><path d="M312.0938,311.625 C311.1563,311.1875 310.5625,311.0469 309.6875,311.0469 C307.0625,311.0469 305.0625,313.125 305.0625,315.8438 L305.0625,316.9688 C305.0625,319.5469 307.1719,321.4375 310.0625,321.4375 C311.2813,321.4375 312.4375,321.1406 313.1875,320.5938 C313.7656,320.1875 314.0938,319.7344 314.0938,319.3438 C314.0938,318.8906 313.7031,318.5 313.2344,318.5 C313.0156,318.5 312.8125,318.5781 312.625,318.7656 C312.1719,319.25 312.1719,319.25 311.9844,319.3438 C311.5625,319.6094 310.875,319.7344 310.1094,319.7344 C308.0625,319.7344 306.7656,318.6406 306.7656,316.9375 L306.7656,315.8438 C306.7656,314.0625 308.0156,312.75 309.75,312.75 C310.3281,312.75 310.9375,312.9063 311.4063,313.1563 C311.8906,313.4375 312.0625,313.6563 312.1563,314.0625 C312.2188,314.4688 312.25,314.5938 312.3906,314.7188 C312.5313,314.8594 312.7656,314.9688 312.9844,314.9688 C313.25,314.9688 313.5156,314.8281 313.6875,314.6094 C313.7969,314.4531 313.8281,314.2656 313.8281,313.8438 L313.8281,312.4219 C313.8281,311.9844 313.8125,311.8594 313.7188,311.7031 C313.5625,311.4375 313.2813,311.2969 312.9844,311.2969 C312.6875,311.2969 312.4844,311.3906 312.2656,311.7031 L312.0938,311.625 Z "/><text fill="#000000" font-family="sans-serif" font-size="12" lengthAdjust="spacingAndGlyphs" textLength="40" x="330.25" y="320.1074">:Media</text><line style="stroke: #A80036; stroke-width: 1.5;" x1="205.5" x2="462.5" y1="331.9531" y2="331.9531"/></a><a href="http://example.com/facebook#media_uri" target="_top" title="http://example.com/facebook#media_uri" xlink:actuate="onRequest" xlink:href="http://example.com/facebook#media_uri" xlink:show="new" xlink:title="http://example.com/facebook#media_uri" xlink:type="simple"><text fill="#0000FF" font-family="sans-serif" font-size="11" lengthAdjust="spacingAndGlyphs" text-decoration="underline" textLength="59" x="210.5" y="346.1636">:media_uri</text></a><text fill="#000000" font-family="sans-serif" font-size="11" lengthAdjust="spacingAndGlyphs" textLength="3" x="273.5" y="346.1636">:</text><a href="http://www.w3.org/2001/XMLSchema#anyURI" target="_top" title="http://www.w3.org/2001/XMLSchema#anyURI" xlink:actuate="onRequest" xlink:href="http://www.w3.org/2001/XMLSchema#anyURI" xlink:show="new" xlink:title="http://www.w3.org/2001/XMLSchema#anyURI" xlink:type="simple"><text fill="#0000FF" font-family="sans-serif" font-size="11" lengthAdjust="spacingAndGlyphs" text-decoration="underline" textLength="62" x="280.5" y="346.1636">xsd:anyURI</text></a><a href="http://example.com/facebook#media_title" target="_top" title="http://example.com/facebook#media_title" xlink:actuate="onRequest" xlink:href="http://example.com/facebook#media_title" xlink:show="new" xlink:title="http://example.com/facebook#media_title" xlink:type="simple"><text fill="#0000FF" font-family="sans-serif" font-size="11" lengthAdjust="spacingAndGlyphs" text-decoration="underline" textLength="67" x="210.5" y="358.9683">:media_title</text></a><text fill="#000000" font-family="sans-serif" font-size="11" lengthAdjust="spacingAndGlyphs" textLength="3" x="281.5" y="358.9683">:</text><a href="http://www.w3.org/2001/XMLSchema#string" target="_top" title="http://www.w3.org/2001/XMLSchema#string" xlink:actuate="onRequest" xlink:href="http://www.w3.org/2001/XMLSchema#string" xlink:show="new" xlink:title="http://www.w3.org/2001/XMLSchema#string" xlink:type="simple"><text fill="#0000FF" font-family="sans-serif" font-size="11" lengthAdjust="spacingAndGlyphs" text-decoration="underline" textLength="54" x="288.5" y="358.9683">xsd:string</text></a><a href="http://example.com/facebook#media_creation_timestamp" target="_top" title="http://example.com/facebook#media_creation_timestamp" xlink:actuate="onRequest" xlink:href="http://example.com/facebook#media_creation_timestamp" xlink:show="new" xlink:title="http://example.com/facebook#media_creation_timestamp" xlink:type="simple"><text fill="#0000FF" font-family="sans-serif" font-size="11" lengthAdjust="spacingAndGlyphs" text-decoration="underline" textLength="158" x="210.5" y="371.7729">:media_creation_timestamp</text></a><text fill="#000000" font-family="sans-serif" font-size="11" lengthAdjust="spacingAndGlyphs" textLength="3" x="372.5" y="371.7729">:</text><a href="http://www.w3.org/2001/XMLSchema#dateTime" target="_top" title="http://www.w3.org/2001/XMLSchema#dateTime" xlink:actuate="onRequest" xlink:href="http://www.w3.org/2001/XMLSchema#dateTime" xlink:show="new" xlink:title="http://www.w3.org/2001/XMLSchema#dateTime" xlink:type="simple"><text fill="#0000FF" font-family="sans-serif" font-size="11" lengthAdjust="spacingAndGlyphs" text-decoration="underline" textLength="78" x="379.5" y="371.7729">xsd:dateTime</text></a><line style="stroke: #A80036; stroke-width: 1.5;" x1="205.5" x2="462.5" y1="378.3672" y2="378.3672"/><!--MD5=[08c7630668d36083c64e4e6157fbf88c]
class :External--><a href="http://example.com/facebook#External" target="_top" title="http://example.com/facebook#External" xlink:actuate="onRequest" xlink:href="http://example.com/facebook#External" xlink:show="new" xlink:title="http://example.com/facebook#External" xlink:type="simple"><rect codeLine="27" fill="#FEFECE" filter="url(#f11a7c4aovb2nk)" height="73.6094" id=":External" style="stroke: #A80036; stroke-width: 1.5;" width="167" x="498.5" y="305.9531"/><ellipse cx="551.75" cy="321.9531" fill="#ADD1B2" rx="11" ry="11" style="stroke: #A80036; stroke-width: 1.0;"/><path d="M554.0938,317.625 C553.1563,317.1875 552.5625,317.0469 551.6875,317.0469 C549.0625,317.0469 547.0625,319.125 547.0625,321.8438 L547.0625,322.9688 C547.0625,325.5469 549.1719,327.4375 552.0625,327.4375 C553.2813,327.4375 554.4375,327.1406 555.1875,326.5938 C555.7656,326.1875 556.0938,325.7344 556.0938,325.3438 C556.0938,324.8906 555.7031,324.5 555.2344,324.5 C555.0156,324.5 554.8125,324.5781 554.625,324.7656 C554.1719,325.25 554.1719,325.25 553.9844,325.3438 C553.5625,325.6094 552.875,325.7344 552.1094,325.7344 C550.0625,325.7344 548.7656,324.6406 548.7656,322.9375 L548.7656,321.8438 C548.7656,320.0625 550.0156,318.75 551.75,318.75 C552.3281,318.75 552.9375,318.9063 553.4063,319.1563 C553.8906,319.4375 554.0625,319.6563 554.1563,320.0625 C554.2188,320.4688 554.25,320.5938 554.3906,320.7188 C554.5313,320.8594 554.7656,320.9688 554.9844,320.9688 C555.25,320.9688 555.5156,320.8281 555.6875,320.6094 C555.7969,320.4531 555.8281,320.2656 555.8281,319.8438 L555.8281,318.4219 C555.8281,317.9844 555.8125,317.8594 555.7188,317.7031 C555.5625,317.4375 555.2813,317.2969 554.9844,317.2969 C554.6875,317.2969 554.4844,317.3906 554.2656,317.7031 L554.0938,317.625 Z "/><text fill="#000000" font-family="sans-serif" font-size="12" lengthAdjust="spacingAndGlyphs" textLength="52" x="572.25" y="326.1074">:External</text><line style="stroke: #A80036; stroke-width: 1.5;" x1="499.5" x2="664.5" y1="337.9531" y2="337.9531"/></a><a href="http://example.com/facebook#external_name" target="_top" title="http://example.com/facebook#external_name" xlink:actuate="onRequest" xlink:href="http://example.com/facebook#external_name" xlink:show="new" xlink:title="http://example.com/facebook#external_name" xlink:type="simple"><text fill="#0000FF" font-family="sans-serif" font-size="11" lengthAdjust="spacingAndGlyphs" text-decoration="underline" textLength="90" x="504.5" y="352.1636">:external_name</text></a><text fill="#000000" font-family="sans-serif" font-size="11" lengthAdjust="spacingAndGlyphs" textLength="3" x="598.5" y="352.1636">:</text><a href="http://www.w3.org/2001/XMLSchema#string" target="_top" title="http://www.w3.org/2001/XMLSchema#string" xlink:actuate="onRequest" xlink:href="http://www.w3.org/2001/XMLSchema#string" xlink:show="new" xlink:title="http://www.w3.org/2001/XMLSchema#string" xlink:type="simple"><text fill="#0000FF" font-family="sans-serif" font-size="11" lengthAdjust="spacingAndGlyphs" text-decoration="underline" textLength="54" x="605.5" y="352.1636">xsd:string</text></a><a href="http://example.com/facebook#external_url" target="_top" title="http://example.com/facebook#external_url" xlink:actuate="onRequest" xlink:href="http://example.com/facebook#external_url" xlink:show="new" xlink:title="http://example.com/facebook#external_url" xlink:type="simple"><text fill="#0000FF" font-family="sans-serif" font-size="11" lengthAdjust="spacingAndGlyphs" text-decoration="underline" textLength="71" x="504.5" y="364.9683">:external_url</text></a><text fill="#000000" font-family="sans-serif" font-size="11" lengthAdjust="spacingAndGlyphs" textLength="3" x="579.5" y="364.9683">:</text><a href="http://www.w3.org/2001/XMLSchema#anyURI" target="_top" title="http://www.w3.org/2001/XMLSchema#anyURI" xlink:actuate="onRequest" xlink:href="http://www.w3.org/2001/XMLSchema#anyURI" xlink:show="new" xlink:title="http://www.w3.org/2001/XMLSchema#anyURI" xlink:type="simple"><text fill="#0000FF" font-family="sans-serif" font-size="11" lengthAdjust="spacingAndGlyphs" text-decoration="underline" textLength="62" x="586.5" y="364.9683">xsd:anyURI</text></a><line style="stroke: #A80036; stroke-width: 1.5;" x1="499.5" x2="664.5" y1="371.5625" y2="371.5625"/><!--MD5=[e6a25f61c0230502941c0e67ddef85bd]
class :PlaceCoordinate--><a href="http://example.com/facebook#PlaceCoordinate" target="_top" title="http://example.com/facebook#PlaceCoordinate" xlink:actuate="onRequest" xlink:href="http://example.com/facebook#PlaceCoordinate" xlink:show="new" xlink:title="http://example.com/facebook#PlaceCoordinate" xlink:type="simple"><rect codeLine="23" fill="#FEFECE" filter="url(#f11a7c4aovb2nk)" height="73.6094" id=":PlaceCoordinate" style="stroke: #A80036; stroke-width: 1.5;" width="133" x="21.5" y="462.9531"/><ellipse cx="36.5" cy="478.9531" fill="#ADD1B2" rx="11" ry="11" style="stroke: #A80036; stroke-width: 1.0;"/><path d="M38.8438,474.625 C37.9063,474.1875 37.3125,474.0469 36.4375,474.0469 C33.8125,474.0469 31.8125,476.125 31.8125,478.8438 L31.8125,479.9688 C31.8125,482.5469 33.9219,484.4375 36.8125,484.4375 C38.0313,484.4375 39.1875,484.1406 39.9375,483.5938 C40.5156,483.1875 40.8438,482.7344 40.8438,482.3438 C40.8438,481.8906 40.4531,481.5 39.9844,481.5 C39.7656,481.5 39.5625,481.5781 39.375,481.7656 C38.9219,482.25 38.9219,482.25 38.7344,482.3438 C38.3125,482.6094 37.625,482.7344 36.8594,482.7344 C34.8125,482.7344 33.5156,481.6406 33.5156,479.9375 L33.5156,478.8438 C33.5156,477.0625 34.7656,475.75 36.5,475.75 C37.0781,475.75 37.6875,475.9063 38.1563,476.1563 C38.6406,476.4375 38.8125,476.6563 38.9063,477.0625 C38.9688,477.4688 39,477.5938 39.1406,477.7188 C39.2813,477.8594 39.5156,477.9688 39.7344,477.9688 C40,477.9688 40.2656,477.8281 40.4375,477.6094 C40.5469,477.4531 40.5781,477.2656 40.5781,476.8438 L40.5781,475.4219 C40.5781,474.9844 40.5625,474.8594 40.4688,474.7031 C40.3125,474.4375 40.0313,474.2969 39.7344,474.2969 C39.4375,474.2969 39.2344,474.3906 39.0156,474.7031 L38.8438,474.625 Z "/><text fill="#000000" font-family="sans-serif" font-size="12" lengthAdjust="spacingAndGlyphs" textLength="101" x="50.5" y="483.1074">:PlaceCoordinate</text><line style="stroke: #A80036; stroke-width: 1.5;" x1="22.5" x2="153.5" y1="494.9531" y2="494.9531"/></a><a href="http://example.com/facebook#longitude" target="_top" title="http://example.com/facebook#longitude" xlink:actuate="onRequest" xlink:href="http://example.com/facebook#longitude" xlink:show="new" xlink:title="http://example.com/facebook#longitude" xlink:type="simple"><text fill="#0000FF" font-family="sans-serif" font-size="11" lengthAdjust="spacingAndGlyphs" text-decoration="underline" textLength="56" x="27.5" y="509.1636">:longitude</text></a><text fill="#000000" font-family="sans-serif" font-size="11" lengthAdjust="spacingAndGlyphs" textLength="3" x="87.5" y="509.1636">:</text><a href="http://www.w3.org/2001/XMLSchema#string" target="_top" title="http://www.w3.org/2001/XMLSchema#string" xlink:actuate="onRequest" xlink:href="http://www.w3.org/2001/XMLSchema#string" xlink:show="new" xlink:title="http://www.w3.org/2001/XMLSchema#string" xlink:type="simple"><text fill="#0000FF" font-family="sans-serif" font-size="11" lengthAdjust="spacingAndGlyphs" text-decoration="underline" textLength="54" x="94.5" y="509.1636">xsd:string</text></a><a href="http://example.com/facebook#latitude" target="_top" title="http://example.com/facebook#latitude" xlink:actuate="onRequest" xlink:href="http://example.com/facebook#latitude" xlink:show="new" xlink:title="http://example.com/facebook#latitude" xlink:type="simple"><text fill="#0000FF" font-family="sans-serif" font-size="11" lengthAdjust="spacingAndGlyphs" text-decoration="underline" textLength="46" x="27.5" y="521.9683">:latitude</text></a><text fill="#000000" font-family="sans-serif" font-size="11" lengthAdjust="spacingAndGlyphs" textLength="3" x="77.5" y="521.9683">:</text><a href="http://www.w3.org/2001/XMLSchema#string" target="_top" title="http://www.w3.org/2001/XMLSchema#string" xlink:actuate="onRequest" xlink:href="http://www.w3.org/2001/XMLSchema#string" xlink:show="new" xlink:title="http://www.w3.org/2001/XMLSchema#string" xlink:type="simple"><text fill="#0000FF" font-family="sans-serif" font-size="11" lengthAdjust="spacingAndGlyphs" text-decoration="underline" textLength="54" x="84.5" y="521.9683">xsd:string</text></a><line style="stroke: #A80036; stroke-width: 1.5;" x1="22.5" x2="153.5" y1="528.5625" y2="528.5625"/><!--MD5=[cbee86f60f8b71e025552d353a459f82]
class :Post--><a href="http://example.com/facebook#Post" target="_top" title="http://example.com/facebook#Post" xlink:actuate="onRequest" xlink:href="http://example.com/facebook#Post" xlink:show="new" xlink:title="http://example.com/facebook#Post" xlink:type="simple"><rect codeLine="31" fill="#FEFECE" filter="url(#f11a7c4aovb2nk)" height="86.4141" id=":Post" style="stroke: #A80036; stroke-width: 1.5;" width="195" x="236.5" y="27.9531"/><ellipse cx="315.25" cy="43.9531" fill="#ADD1B2" rx="11" ry="11" style="stroke: #A80036; stroke-width: 1.0;"/><path d="M317.5938,39.625 C316.6563,39.1875 316.0625,39.0469 315.1875,39.0469 C312.5625,39.0469 310.5625,41.125 310.5625,43.8438 L310.5625,44.9688 C310.5625,47.5469 312.6719,49.4375 315.5625,49.4375 C316.7813,49.4375 317.9375,49.1406 318.6875,48.5938 C319.2656,48.1875 319.5938,47.7344 319.5938,47.3438 C319.5938,46.8906 319.2031,46.5 318.7344,46.5 C318.5156,46.5 318.3125,46.5781 318.125,46.7656 C317.6719,47.25 317.6719,47.25 317.4844,47.3438 C317.0625,47.6094 316.375,47.7344 315.6094,47.7344 C313.5625,47.7344 312.2656,46.6406 312.2656,44.9375 L312.2656,43.8438 C312.2656,42.0625 313.5156,40.75 315.25,40.75 C315.8281,40.75 316.4375,40.9063 316.9063,41.1563 C317.3906,41.4375 317.5625,41.6563 317.6563,42.0625 C317.7188,42.4688 317.75,42.5938 317.8906,42.7188 C318.0313,42.8594 318.2656,42.9688 318.4844,42.9688 C318.75,42.9688 319.0156,42.8281 319.1875,42.6094 C319.2969,42.4531 319.3281,42.2656 319.3281,41.8438 L319.3281,40.4219 C319.3281,39.9844 319.3125,39.8594 319.2188,39.7031 C319.0625,39.4375 318.7813,39.2969 318.4844,39.2969 C318.1875,39.2969 317.9844,39.3906 317.7656,39.7031 L317.5938,39.625 Z "/><text fill="#000000" font-family="sans-serif" font-size="12" lengthAdjust="spacingAndGlyphs" textLength="29" x="335.75" y="48.1074">:Post</text><line style="stroke: #A80036; stroke-width: 1.5;" x1="237.5" x2="430.5" y1="59.9531" y2="59.9531"/></a><a href="http://example.com/facebook#post_title" target="_top" title="http://example.com/facebook#post_title" xlink:actuate="onRequest" xlink:href="http://example.com/facebook#post_title" xlink:show="new" xlink:title="http://example.com/facebook#post_title" xlink:type="simple"><text fill="#0000FF" font-family="sans-serif" font-size="11" lengthAdjust="spacingAndGlyphs" text-decoration="underline" textLength="55" x="242.5" y="74.1636">:post_title</text></a><text fill="#000000" font-family="sans-serif" font-size="11" lengthAdjust="spacingAndGlyphs" textLength="3" x="301.5" y="74.1636">:</text><a href="http://www.w3.org/2001/XMLSchema#string" target="_top" title="http://www.w3.org/2001/XMLSchema#string" xlink:actuate="onRequest" xlink:href="http://www.w3.org/2001/XMLSchema#string" xlink:show="new" xlink:title="http://www.w3.org/2001/XMLSchema#string" xlink:type="simple"><text fill="#0000FF" font-family="sans-serif" font-size="11" lengthAdjust="spacingAndGlyphs" text-decoration="underline" textLength="54" x="308.5" y="74.1636">xsd:string</text></a><a href="http://example.com/facebook#post_timestamp" target="_top" title="http://example.com/facebook#post_timestamp" xlink:actuate="onRequest" xlink:href="http://example.com/facebook#post_timestamp" xlink:show="new" xlink:title="http://example.com/facebook#post_timestamp" xlink:type="simple"><text fill="#0000FF" font-family="sans-serif" font-size="11" lengthAdjust="spacingAndGlyphs" text-decoration="underline" textLength="94" x="242.5" y="86.9683">:post_timestamp</text></a><text fill="#000000" font-family="sans-serif" font-size="11" lengthAdjust="spacingAndGlyphs" textLength="3" x="340.5" y="86.9683">:</text><a href="http://www.w3.org/2001/XMLSchema#dateTime" target="_top" title="http://www.w3.org/2001/XMLSchema#dateTime" xlink:actuate="onRequest" xlink:href="http://www.w3.org/2001/XMLSchema#dateTime" xlink:show="new" xlink:title="http://www.w3.org/2001/XMLSchema#dateTime" xlink:type="simple"><text fill="#0000FF" font-family="sans-serif" font-size="11" lengthAdjust="spacingAndGlyphs" text-decoration="underline" textLength="78" x="347.5" y="86.9683">xsd:dateTime</text></a><a href="http://example.com/facebook#post_data" target="_top" title="http://example.com/facebook#post_data" xlink:actuate="onRequest" xlink:href="http://example.com/facebook#post_data" xlink:show="new" xlink:title="http://example.com/facebook#post_data" xlink:type="simple"><text fill="#0000FF" font-family="sans-serif" font-size="11" lengthAdjust="spacingAndGlyphs" text-decoration="underline" textLength="58" x="242.5" y="99.7729">:post_data</text></a><text fill="#000000" font-family="sans-serif" font-size="11" lengthAdjust="spacingAndGlyphs" textLength="3" x="304.5" y="99.7729">:</text><a href="http://www.w3.org/2001/XMLSchema#string" target="_top" title="http://www.w3.org/2001/XMLSchema#string" xlink:actuate="onRequest" xlink:href="http://www.w3.org/2001/XMLSchema#string" xlink:show="new" xlink:title="http://www.w3.org/2001/XMLSchema#string" xlink:type="simple"><text fill="#0000FF" font-family="sans-serif" font-size="11" lengthAdjust="spacingAndGlyphs" text-decoration="underline" textLength="54" x="311.5" y="99.7729">xsd:string</text></a><line style="stroke: #A80036; stroke-width: 1.5;" x1="237.5" x2="430.5" y1="106.3672" y2="106.3672"/><!--MD5=[c171ecf157b01ce9104645f6f729c03f]
reverse link :MediaMetadata to :PhotoMetadata--><path codeLine="2" d="M334,544.3911 C334,561.9678 334,581.8146 334,597.6996 " fill="none" id=":MediaMetadata&lt;-:PhotoMetadata" style="stroke: #A80036; stroke-width: 1.0;"/><polygon fill="none" points="327,544.1551,334,524.1551,341,544.1551,327,544.1551" style="stroke: #A80036; stroke-width: 1.0;"/><!--MD5=[3bcc7b48f8d8396cae667373a41b270d]
reverse link :Attachment to :Place--><path codeLine="3" d="M271.025,248.2091 C240.029,264.0841 202.296,283.4111 169.162,300.3821 " fill="none" id=":Attachment&lt;-:Place" style="stroke: #A80036; stroke-width: 1.0;"/><polygon fill="none" points="267.888,241.9511,288.88,239.0631,274.27,254.4111,267.888,241.9511" style="stroke: #A80036; stroke-width: 1.0;"/><!--MD5=[93c530da250e724e0c854f64cce549ec]
reverse link :Attachment to :Media--><path codeLine="4" d="M334,259.4581 C334,272.5461 334,286.8801 334,299.8741 " fill="none" id=":Attachment&lt;-:Media" style="stroke: #A80036; stroke-width: 1.0;"/><polygon fill="none" points="327,259.0631,334,239.0631,341,259.0631,327,259.0631" style="stroke: #A80036; stroke-width: 1.0;"/><!--MD5=[1fb8d441a39e0bf43f698b67c0869a99]
reverse link :Attachment to :External--><path codeLine="5" d="M397.774,248.3541 C432.4,265.9471 475.302,287.7431 510.99,305.8751 " fill="none" id=":Attachment&lt;-:External" style="stroke: #A80036; stroke-width: 1.0;"/><polygon fill="none" points="394.147,254.3631,379.487,239.0631,400.488,241.8821,394.147,254.3631" style="stroke: #A80036; stroke-width: 1.0;"/><!--MD5=[b8c873210f1a5cbc488be7453f2edcef]
link :Post to :Attachment--><path codeLine="36" d="M334,114.1731 C334,137.2351 334,165.1741 334,185.6151 " fill="none" id=":Post-&gt;:Attachment" style="stroke: #A80036; stroke-width: 1.0;"/><polygon fill="#A80036" points="334,190.6431,338,181.6431,334,185.6431,330,181.6431,334,190.6431" style="stroke: #A80036; stroke-width: 1.0;"/><a href="http://example.com/facebook#hasAttachment" target="_top" title="http://example.com/facebook#hasAttachment" xlink:actuate="onRequest" xlink:href="http://example.com/facebook#hasAttachment" xlink:show="new" xlink:title="http://example.com/facebook#hasAttachment" xlink:type="simple"><text fill="#0000FF" font-family="sans-serif" font-size="13" lengthAdjust="spacingAndGlyphs" text-decoration="underline" textLength="104" x="335" y="157.02">:hasAttachment</text></a><!--MD5=[66fc6b79021b81709080a0dcd9527c1b]
link :Media to :MediaMetadata--><path codeLine="37" d="M334,386.3071 C334,413.1401 334,447.1041 334,470.6871 " fill="none" id=":Media-&gt;:MediaMetadata" style="stroke: #A80036; stroke-width: 1.0;"/><polygon fill="#A80036" points="334,475.8531,338,466.8531,334,470.8531,330,466.8531,334,475.8531" style="stroke: #A80036; stroke-width: 1.0;"/><a href="http://example.com/facebook#media_metadata" target="_top" title="http://example.com/facebook#media_metadata" xlink:actuate="onRequest" xlink:href="http://example.com/facebook#media_metadata" xlink:show="new" xlink:title="http://example.com/facebook#media_metadata" xlink:type="simple"><text fill="#0000FF" font-family="sans-serif" font-size="13" lengthAdjust="spacingAndGlyphs" text-decoration="underline" textLength="115" x="335" y="429.02">:media_metadata</text></a><!--MD5=[c6df378a03a9e53e99f71b31861e36c6]
link :Place to :PlaceCoordinate--><path codeLine="38" d="M88,386.3071 C88,408.4641 88,435.4821 88,457.5031 " fill="none" id=":Place-&gt;:PlaceCoordinate" style="stroke: #A80036; stroke-width: 1.0;"/><polygon fill="#A80036" points="88,462.6981,92,453.6981,88,457.6981,84,453.6981,88,462.6981" style="stroke: #A80036; stroke-width: 1.0;"/><a href="http://example.com/facebook#place_coordinate" target="_top" title="http://example.com/facebook#place_coordinate" xlink:actuate="onRequest" xlink:href="http://example.com/facebook#place_coordinate" xlink:show="new" xlink:title="http://example.com/facebook#place_coordinate" xlink:type="simple"><text fill="#0000FF" font-family="sans-serif" font-size="13" lengthAdjust="spacingAndGlyphs" text-decoration="underline" textLength="114" x="89" y="429.02">:place_coordinate</text></a><text fill="#888888" font-family="sans-serif" font-size="10" lengthAdjust="spacingAndGlyphs" textLength="74" x="179.75" y="681.04">Generated by</text><a href="https://github.com/edmondchuc/ontogram" target="_top" title="https://github.com/edmondchuc/ontogram" xlink:actuate="onRequest" xlink:href="https://github.com/edmondchuc/ontogram" xlink:show="new" xlink:title="https://github.com/edmondchuc/ontogram" xlink:type="simple"><text fill="#0000FF" font-family="sans-serif" font-size="10" lengthAdjust="spacingAndGlyphs" text-decoration="underline" textLength="230" x="256.75" y="681.04">https://github.com/edmondchuc/ontogram</text></a><!--MD5=[d55f914c837877f234db3bcedf8126b2]
@startuml
title Facebook Schema
":MediaMetadata" <|- - ":PhotoMetadata"
":Attachment" <|- - ":Place"
":Attachment" <|- - ":Media"
":Attachment" <|- - ":External"
Class ":PhotoMetadata" [[http://example.com/facebook#PhotoMetadata]] {
[[http://example.com/facebook#photo_upload_ip :photo_upload_ip]] : [[http://www.w3.org/2001/XMLSchema#string xsd:string]]
}
Class ":Place" [[http://example.com/facebook#Place]] {
[[http://example.com/facebook#place_url :place_url]] : [[http://www.w3.org/2001/XMLSchema#anyURI xsd:anyURI]]
[[http://example.com/facebook#place_name :place_name]] : [[http://www.w3.org/2001/XMLSchema#string xsd:string]]
[[http://example.com/facebook#place_address :place_address]] : [[http://www.w3.org/2001/XMLSchema#string xsd:string]]
}
Class ":MediaMetadata" [[http://example.com/facebook#MediaMetadata]] {
}
Class ":Attachment" [[http://example.com/facebook#Attachment]] {
}
Class ":Media" [[http://example.com/facebook#Media]] {
[[http://example.com/facebook#media_uri :media_uri]] : [[http://www.w3.org/2001/XMLSchema#anyURI xsd:anyURI]]
[[http://example.com/facebook#media_title :media_title]] : [[http://www.w3.org/2001/XMLSchema#string xsd:string]]
[[http://example.com/facebook#media_creation_timestamp :media_creation_timestamp]] : [[http://www.w3.org/2001/XMLSchema#dateTime xsd:dateTime]]
}
Class ":PlaceCoordinate" [[http://example.com/facebook#PlaceCoordinate]] {
[[http://example.com/facebook#longitude :longitude]] : [[http://www.w3.org/2001/XMLSchema#string xsd:string]]
[[http://example.com/facebook#latitude :latitude]] : [[http://www.w3.org/2001/XMLSchema#string xsd:string]]
}
Class ":External" [[http://example.com/facebook#External]] {
[[http://example.com/facebook#external_name :external_name]] : [[http://www.w3.org/2001/XMLSchema#string xsd:string]]
[[http://example.com/facebook#external_url :external_url]] : [[http://www.w3.org/2001/XMLSchema#anyURI xsd:anyURI]]
}
Class ":Post" [[http://example.com/facebook#Post]] {
[[http://example.com/facebook#post_title :post_title]] : [[http://www.w3.org/2001/XMLSchema#string xsd:string]]
[[http://example.com/facebook#post_timestamp :post_timestamp]] : [[http://www.w3.org/2001/XMLSchema#dateTime xsd:dateTime]]
[[http://example.com/facebook#post_data :post_data]] : [[http://www.w3.org/2001/XMLSchema#string xsd:string]]
}
":Post" - -> ":Attachment" : "[[http://example.com/facebook#hasAttachment :hasAttachment]]"
":Media" - -> ":MediaMetadata" : "[[http://example.com/facebook#media_metadata :media_metadata]]"
":Place" - -> ":PlaceCoordinate" : "[[http://example.com/facebook#place_coordinate :place_coordinate]]"
center footer Generated by [[https://github.com/edmondchuc/ontogram https://github.com/edmondchuc/ontogram]]
@enduml

PlantUML version 1.2020.16beta7(Unknown compile time)
(GPL source distribution)
Java Runtime: Java(TM) SE Runtime Environment
JVM: Java HotSpot(TM) 64-Bit Server VM
Default Encoding: UTF-8
Language: en
Country: US
--></g></svg>